<svg xmlns="http://www.w3.org/2000/svg" viewBox="0 0 1920 1080"><defs><style>.cls-1{fill:#a8ffff;}.cls-2{fill:#f8ffff;}.cls-3{fill:#f3fdff;}.cls-4{fill:#cff5f8;}.cls-5{fill:#bba8c1;}.cls-6{fill:#967da1;}.cls-7{fill:#735181;}.cls-8{fill:#49295e;}.cls-9{fill:#ddd6e1;}.cls-10{fill:#baabc2;}.cls-11{fill:#dbd3de;}</style></defs><g id="Layer_2" data-name="Layer 2"><g id="Background_Image" data-name="Background Image"><rect class="cls-1" width="1920" height="1080"/><path class="cls-2" d="M1300.64,410.5l29.77-25.83c16-13.92,31.74,3.81,46.51,13.1a9,9,0,0,0,3.66,1.6c5.63.65,6.84-7.64,6.27-13.28a82.29,82.29,0,0,1,77.09-90.33c13.27-.77,27,1.85,38.14,9.1,22.63,14.74,30,44.44,48.25,64.3a16.55,16.55,0,0,0,5.91,4.55c3,1.15,6.29.7,9.39,0,10.94-2.45,21-7.7,31.72-11.16s22.73-5,32.82-.06c12.24,6,18.64,19.86,29.88,27.55,16.76,11.47,39.16,6.62,59.26,3.67a258.28,258.28,0,0,1,67.75-.95c3.61.43,7.81,1.36,9.3,4.68,2.23,5-3.57,9.76-8.72,11.54-11.18,3.85-23.26,4-35.09,4.06-79.61.22-159.34-4.28-238.78,1-45.73,3-91.23,9.29-137.07,10.68-18.37.56-52.71,5.65-69.5-2.65-16.11-8-2.71-23.49,10.23-26.38,8.38-1.88,17-1.74,25-5.26"/><path class="cls-2" d="M83.64,225.9c-42.62,27-65.25,81.79-55.22,131a9.13,9.13,0,0,0,10.35,7.26c34.42-5.61,69.68-4.43,104.6-3.22l226.09,7.81c4.35.15,9.12.19,12-4.07a10.39,10.39,0,0,0-1.65-13c-7-7-16.73-5.78-25.72-5.41-41.23,1.73-80.75-18.13-112.58-44.39-6.6-5.44-13.69-11.48-22.24-11.77-11.76-.39-22.43,10.38-33.93,7.88-14.24-3.1-16.48-21.85-20.93-35.73-10.91-34-56.93-50.93-87.28-32.12"/><path class="cls-3" d="M68.81,295.63H129a5.85,5.85,0,0,0,4.61-9.47C120.11,269,88.92,239,63.63,287A5.87,5.87,0,0,0,68.81,295.63Z"/><path class="cls-3" d="M1421.73,359.38h80.79a4.14,4.14,0,0,0,3.11-6.88c-14.73-16.56-55.36-53.39-87.44.6A4.14,4.14,0,0,0,1421.73,359.38Z"/><path class="cls-3" d="M1328.78,412.73h32.91a3.5,3.5,0,0,0,2.87-5.51c-7.35-10.44-24.83-29.49-39,.52A3.5,3.5,0,0,0,1328.78,412.73Z"/><path class="cls-3" d="M1561.8,387.9l78.51-4.1a1.46,1.46,0,0,0,.4-2.85c-14.77-4.94-51.18-14-79.78,4.24A1.47,1.47,0,0,0,1561.8,387.9Z"/><path class="cls-3" d="M1918.83,522.77s-42.17,5.08-48.19,16.28c0,0-158.62-7.13-255,29.51,0,0-245-38.67-355.39,53.94,0,0-214.41-39.69-294.94,22.39,0,0-34.35-42.75-205-26.46,0,0-88.35-100.75-389.53-34.6,0,0-137-76.36-369.6-61.06V1080H1918.83Z"/><path class="cls-4" d="M1918.83,692.15s-674.69-48.39-913.23,22.73L855.93,720.8s-224.5-97.19-348.45-53.34c0,0-79.51,35.56-175.4-40.3,0,0-42.09-10.67-109.91,29.64,0,0-161.37-88.9-222.17-75.87V1080H1920Z"/><path class="cls-5" d="M1918.83,692.15S1331.61,613,895.63,718V986.57H1920Z"/><path class="cls-6" d="M0,649.19S718.24,648,1250.44,750.66v262.45H0Z"/><path class="cls-7" d="M1918.83,692.15S1200.59,691,668.39,796v268.56H1918.83Z"/><path class="cls-8" d="M0,713.69c0-3,103.05-1.37,108.53-1.21,107,3.1,212.89,15.29,314.83,31.66,70.74,11.37,140,25,207.78,40.36,57.27,13,111.4,30.67,173.09,38,67.44,8,141.84,9.1,210.87,10.53,83.16,1.71,166.61.61,249.42-3.71,96.57-5,192.43-14.53,284.93-29.56q38.08-6.18,75.31-13.65c23.66-4.76,46.84-11.13,71.69-14.2,13.29-1.65,27-2.9,40.44-4.16,42.44-4,85.45-6.45,128.56-7.42q27.25-.62,54.55-.39V1080H0Z"/><path class="cls-9" d="M1389,710.25l51.57-2.67s20,7.55-21.18,37.94c-23.8,17.59-54.63,32.44-90.06,44-39.89,13-99.4,32.53-126.07,42.44,0,0-35.46,1.64-154.34,1.64C1049,833.55,1367,742.38,1389,710.25Z"/><path class="cls-10" d="M854.53,694l53,5.54S899.89,723.18,920,755l-50.34,7.18S847.92,734.53,854.53,694Z"/><path class="cls-11" d="M1168.18,675.11l45.71-3.72,36.55,49.26-46.52,3.88S1204,689.09,1168.18,675.11Z"/><path class="cls-8" d="M77.48,702.12a125.85,125.85,0,0,0-12.13,4.14,3.28,3.28,0,0,0,.49-1.2c.39-2.3-3.85-6.65-9.59-4.91-2.65.8-3,2.34-2.89,3.76A7.56,7.56,0,0,0,53.5,705l-.43.54-.64-.21c-1.3-.46-2.71-1.12-4.23-1.65-.35-.23-.68-.47-1-.7-1.4-.89-4.41-.74-5.87,0a2.63,2.63,0,0,0-.87.65,3.47,3.47,0,0,0-1.52,1.28c-.59,1,.15,2,1.14,2.86,1.84,1.58,3.83,3.14,5.78,4.69a13.4,13.4,0,0,0,8.65,3,28.51,28.51,0,0,0,16.1-4.89c4-1.67,8-3.38,11.94-5.07C86.21,703.86,81.48,701,77.48,702.12Z"/><path class="cls-8" d="M892.07,819.6a125.85,125.85,0,0,0-12.13,4.14,3.54,3.54,0,0,0,.49-1.2c.39-2.31-3.85-6.65-9.6-4.91-2.64.8-3,2.34-2.88,3.75a7.5,7.5,0,0,0,.14,1.06l-.44.54-.63-.21c-1.31-.46-2.72-1.13-4.23-1.66-.35-.23-.68-.47-1-.7-1.4-.89-4.41-.74-5.87,0a2.63,2.63,0,0,0-.87.65,3.55,3.55,0,0,0-1.52,1.28c-.59,1,.15,2,1.14,2.86,1.84,1.59,3.83,3.14,5.78,4.7a13.46,13.46,0,0,0,8.65,3,28.43,28.43,0,0,0,16.1-4.9c4-1.67,8-3.38,11.94-5.07C900.8,821.33,896.07,818.45,892.07,819.6Z"/><path class="cls-8" d="M1737.27,757.53a76.14,76.14,0,0,0-9.11,5.8,3,3,0,0,0-.24-1.22c-1-2.25-7.63-5.74-12.07-3.21-2,1.17-1.44,2.69-.51,4a11.36,11.36,0,0,0,.76,1c0,.19-.06.39-.1.58l-.73-.11c-1.52-.23-3.26-.65-5-.93-.48-.16-.93-.34-1.41-.5a6.63,6.63,0,0,0-5.6.89,1.49,1.49,0,0,0-.44.75,2,2,0,0,0-.7,1.46c.05,1.05,1.34,1.88,2.8,2.55,2.7,1.23,5.52,2.41,8.3,3.59a18.21,18.21,0,0,0,10,1.51c6.29-.87,10.45-4.17,12.44-7.13,2.83-2.2,5.58-4.44,8.36-6.66C1746.62,757.85,1740.4,755.83,1737.27,757.53Z"/></g></g></svg>